<?xml version="1.0" encoding="UTF-8" standalone="no"?>
<!DOCTYPE svg PUBLIC "-//W3C//DTD SVG 1.1//EN"
 "http://www.w3.org/Graphics/SVG/1.1/DTD/svg11.dtd">
<!-- Generated by graphviz version 2.47.0 (20210316.0004)
 -->
<!-- Title: dbml Pages: 1 -->
<svg width="2465pt" height="1769pt"
 viewBox="0.00 0.00 2465.01 1769.07" xmlns="http://www.w3.org/2000/svg" xmlns:xlink="http://www.w3.org/1999/xlink">
<g id="graph0" class="graph" transform="scale(1 1) rotate(0) translate(4 1765.07)">
<title>dbml</title>
<!-- Boat -->
<g id="Boat" class="node">
<title>Boat</title>
<ellipse fill="none" stroke="black" stroke-width="0" cx="2225.78" cy="-731.53" rx="210.02" ry="214.92"/>
<polygon fill="#1d71b8" stroke="transparent" points="2079.78,-821.53 2079.78,-881.53 2372.78,-881.53 2372.78,-821.53 2079.78,-821.53"/>
<polygon fill="none" stroke="#29235c" points="2079.78,-821.53 2079.78,-881.53 2372.78,-881.53 2372.78,-821.53 2079.78,-821.53"/>
<text text-anchor="start" x="2131.13" y="-842.73" font-family="Helvetica,sans-Serif" font-weight="bold" font-size="32.00" fill="#ffffff"> &#160;&#160;&#160;&#160;&#160;&#160;Boat &#160;&#160;&#160;&#160;&#160;&#160;</text>
<polygon fill="#e7e2dd" stroke="transparent" points="2079.78,-761.53 2079.78,-821.53 2372.78,-821.53 2372.78,-761.53 2079.78,-761.53"/>
<polygon fill="none" stroke="#29235c" points="2079.78,-761.53 2079.78,-821.53 2372.78,-821.53 2372.78,-761.53 2079.78,-761.53"/>
<text text-anchor="start" x="2090.78" y="-782.73" font-family="Helvetica,sans-Serif" font-weight="bold" font-size="32.00" fill="#29235c">id</text>
<text text-anchor="start" x="2115.67" y="-782.73" font-family="Helvetica,sans-Serif" font-size="32.00" fill="#29235c"> &#160;&#160;&#160;</text>
<text text-anchor="start" x="2219.57" y="-782.73" font-family="Helvetica,sans-Serif" font-style="italic" font-size="32.00" fill="#29235c">INTEGER</text>
<polygon fill="#e7e2dd" stroke="transparent" points="2079.78,-701.53 2079.78,-761.53 2372.78,-761.53 2372.78,-701.53 2079.78,-701.53"/>
<polygon fill="none" stroke="#29235c" points="2079.78,-701.53 2079.78,-761.53 2372.78,-761.53 2372.78,-701.53 2079.78,-701.53"/>
<text text-anchor="start" x="2090.49" y="-721.73" font-family="Helvetica,sans-Serif" font-size="32.00" fill="#29235c">name &#160;&#160;&#160;</text>
<text text-anchor="start" x="2205.57" y="-722.73" font-family="Helvetica,sans-Serif" font-style="italic" font-size="32.00" fill="#29235c">VARCHAR</text>
<polygon fill="#e7e2dd" stroke="transparent" points="2079.78,-641.53 2079.78,-701.53 2372.78,-701.53 2372.78,-641.53 2079.78,-641.53"/>
<polygon fill="none" stroke="#29235c" points="2079.78,-641.53 2079.78,-701.53 2372.78,-701.53 2372.78,-641.53 2079.78,-641.53"/>
<text text-anchor="start" x="2090.78" y="-661.73" font-family="Helvetica,sans-Serif" font-size="32.00" fill="#29235c">length &#160;&#160;&#160;</text>
<text text-anchor="start" x="2258.66" y="-662.73" font-family="Helvetica,sans-Serif" font-style="italic" font-size="32.00" fill="#29235c">FLOAT</text>
<polygon fill="#e7e2dd" stroke="transparent" points="2079.78,-581.53 2079.78,-641.53 2372.78,-641.53 2372.78,-581.53 2079.78,-581.53"/>
<polygon fill="none" stroke="#29235c" points="2079.78,-581.53 2079.78,-641.53 2372.78,-641.53 2372.78,-581.53 2079.78,-581.53"/>
<text text-anchor="start" x="2090.78" y="-601.73" font-family="Helvetica,sans-Serif" font-size="32.00" fill="#29235c">Type &#160;&#160;&#160;</text>
<text text-anchor="start" x="2205.36" y="-602.73" font-family="Helvetica,sans-Serif" font-style="italic" font-size="32.00" fill="#29235c">VARCHAR</text>
<polygon fill="none" stroke="#29235c" stroke-width="2" points="2078.28,-580.53 2078.28,-882.53 2373.28,-882.53 2373.28,-580.53 2078.28,-580.53"/>
</g>
<!-- BoatService -->
<g id="BoatService" class="node">
<title>BoatService</title>
<ellipse fill="none" stroke="black" stroke-width="0" cx="956.65" cy="-404.53" rx="316.57" ry="214.92"/>
<polygon fill="#1d71b8" stroke="transparent" points="734.65,-494.53 734.65,-554.53 1178.65,-554.53 1178.65,-494.53 734.65,-494.53"/>
<polygon fill="none" stroke="#29235c" points="734.65,-494.53 734.65,-554.53 1178.65,-554.53 1178.65,-494.53 734.65,-494.53"/>
<text text-anchor="start" x="808.16" y="-515.73" font-family="Helvetica,sans-Serif" font-weight="bold" font-size="32.00" fill="#ffffff"> &#160;&#160;&#160;&#160;&#160;&#160;BoatService &#160;&#160;&#160;&#160;&#160;&#160;</text>
<polygon fill="#e7e2dd" stroke="transparent" points="734.65,-434.53 734.65,-494.53 1178.65,-494.53 1178.65,-434.53 734.65,-434.53"/>
<polygon fill="none" stroke="#29235c" points="734.65,-434.53 734.65,-494.53 1178.65,-494.53 1178.65,-434.53 734.65,-434.53"/>
<text text-anchor="start" x="745.65" y="-455.73" font-family="Helvetica,sans-Serif" font-weight="bold" font-size="32.00" fill="#29235c">id</text>
<text text-anchor="start" x="770.54" y="-455.73" font-family="Helvetica,sans-Serif" font-size="32.00" fill="#29235c"> &#160;&#160;&#160;</text>
<text text-anchor="start" x="1025.44" y="-455.73" font-family="Helvetica,sans-Serif" font-style="italic" font-size="32.00" fill="#29235c">INTEGER</text>
<polygon fill="#e7e2dd" stroke="transparent" points="734.65,-374.53 734.65,-434.53 1178.65,-434.53 1178.65,-374.53 734.65,-374.53"/>
<polygon fill="none" stroke="#29235c" points="734.65,-374.53 734.65,-434.53 1178.65,-434.53 1178.65,-374.53 734.65,-374.53"/>
<text text-anchor="start" x="745.65" y="-394.73" font-family="Helvetica,sans-Serif" font-size="32.00" fill="#29235c">booking_id &#160;&#160;&#160;</text>
<text text-anchor="start" x="1025.44" y="-395.73" font-family="Helvetica,sans-Serif" font-style="italic" font-size="32.00" fill="#29235c">INTEGER</text>
<polygon fill="#e7e2dd" stroke="transparent" points="734.65,-314.53 734.65,-374.53 1178.65,-374.53 1178.65,-314.53 734.65,-314.53"/>
<polygon fill="none" stroke="#29235c" points="734.65,-314.53 734.65,-374.53 1178.65,-374.53 1178.65,-314.53 734.65,-314.53"/>
<text text-anchor="start" x="745.65" y="-334.73" font-family="Helvetica,sans-Serif" font-size="32.00" fill="#29235c">service_id &#160;&#160;&#160;</text>
<text text-anchor="start" x="1025.44" y="-335.73" font-family="Helvetica,sans-Serif" font-style="italic" font-size="32.00" fill="#29235c">INTEGER</text>
<polygon fill="#e7e2dd" stroke="transparent" points="734.65,-254.53 734.65,-314.53 1178.65,-314.53 1178.65,-254.53 734.65,-254.53"/>
<polygon fill="none" stroke="#29235c" points="734.65,-254.53 734.65,-314.53 1178.65,-314.53 1178.65,-254.53 734.65,-254.53"/>
<text text-anchor="start" x="745.43" y="-274.73" font-family="Helvetica,sans-Serif" font-size="32.00" fill="#29235c">scheduled_date &#160;&#160;&#160;</text>
<text text-anchor="start" x="1006.27" y="-275.73" font-family="Helvetica,sans-Serif" font-style="italic" font-size="32.00" fill="#29235c">DATETIME</text>
<polygon fill="none" stroke="#29235c" stroke-width="2" points="733.65,-253.53 733.65,-555.53 1179.65,-555.53 1179.65,-253.53 733.65,-253.53"/>
</g>
<!-- Booking -->
<g id="Booking" class="node">
<title>Booking</title>
<ellipse fill="none" stroke="black" stroke-width="0" cx="1634" cy="-662.53" rx="296.97" ry="299.63"/>
<polygon fill="#1d71b8" stroke="transparent" points="1426,-812.53 1426,-872.53 1842,-872.53 1842,-812.53 1426,-812.53"/>
<polygon fill="none" stroke="#29235c" points="1426,-812.53 1426,-872.53 1842,-872.53 1842,-812.53 1426,-812.53"/>
<text text-anchor="start" x="1513.95" y="-833.73" font-family="Helvetica,sans-Serif" font-weight="bold" font-size="32.00" fill="#ffffff"> &#160;&#160;&#160;&#160;&#160;&#160;Booking &#160;&#160;&#160;&#160;&#160;&#160;</text>
<polygon fill="#e7e2dd" stroke="transparent" points="1426,-752.53 1426,-812.53 1842,-812.53 1842,-752.53 1426,-752.53"/>
<polygon fill="none" stroke="#29235c" points="1426,-752.53 1426,-812.53 1842,-812.53 1842,-752.53 1426,-752.53"/>
<text text-anchor="start" x="1437" y="-773.73" font-family="Helvetica,sans-Serif" font-weight="bold" font-size="32.00" fill="#29235c">id</text>
<text text-anchor="start" x="1461.89" y="-773.73" font-family="Helvetica,sans-Serif" font-size="32.00" fill="#29235c"> &#160;&#160;&#160;</text>
<text text-anchor="start" x="1688.78" y="-773.73" font-family="Helvetica,sans-Serif" font-style="italic" font-size="32.00" fill="#29235c">INTEGER</text>
<polygon fill="#e7e2dd" stroke="transparent" points="1426,-692.53 1426,-752.53 1842,-752.53 1842,-692.53 1426,-692.53"/>
<polygon fill="none" stroke="#29235c" points="1426,-692.53 1426,-752.53 1842,-752.53 1842,-692.53 1426,-692.53"/>
<text text-anchor="start" x="1437" y="-712.73" font-family="Helvetica,sans-Serif" font-size="32.00" fill="#29235c">customer_id &#160;&#160;&#160;</text>
<text text-anchor="start" x="1688.78" y="-713.73" font-family="Helvetica,sans-Serif" font-style="italic" font-size="32.00" fill="#29235c">INTEGER</text>
<polygon fill="#e7e2dd" stroke="transparent" points="1426,-632.53 1426,-692.53 1842,-692.53 1842,-632.53 1426,-632.53"/>
<polygon fill="none" stroke="#29235c" points="1426,-632.53 1426,-692.53 1842,-692.53 1842,-632.53 1426,-632.53"/>
<text text-anchor="start" x="1437" y="-652.73" font-family="Helvetica,sans-Serif" font-size="32.00" fill="#29235c">boat_id &#160;&#160;&#160;</text>
<text text-anchor="start" x="1688.78" y="-653.73" font-family="Helvetica,sans-Serif" font-style="italic" font-size="32.00" fill="#29235c">INTEGER</text>
<polygon fill="#e7e2dd" stroke="transparent" points="1426,-572.53 1426,-632.53 1842,-632.53 1842,-572.53 1426,-572.53"/>
<polygon fill="none" stroke="#29235c" points="1426,-572.53 1426,-632.53 1842,-632.53 1842,-572.53 1426,-572.53"/>
<text text-anchor="start" x="1436.74" y="-592.73" font-family="Helvetica,sans-Serif" font-size="32.00" fill="#29235c">storage_slot_id &#160;&#160;&#160;</text>
<text text-anchor="start" x="1688.89" y="-593.73" font-family="Helvetica,sans-Serif" font-style="italic" font-size="32.00" fill="#29235c">INTEGER</text>
<polygon fill="#e7e2dd" stroke="transparent" points="1426,-512.53 1426,-572.53 1842,-572.53 1842,-512.53 1426,-512.53"/>
<polygon fill="none" stroke="#29235c" points="1426,-512.53 1426,-572.53 1842,-572.53 1842,-512.53 1426,-512.53"/>
<text text-anchor="start" x="1437" y="-532.73" font-family="Helvetica,sans-Serif" font-size="32.00" fill="#29235c">start_date &#160;&#160;&#160;</text>
<text text-anchor="start" x="1669.23" y="-533.73" font-family="Helvetica,sans-Serif" font-style="italic" font-size="32.00" fill="#29235c">DATETIME</text>
<polygon fill="#e7e2dd" stroke="transparent" points="1426,-452.53 1426,-512.53 1842,-512.53 1842,-452.53 1426,-452.53"/>
<polygon fill="none" stroke="#29235c" points="1426,-452.53 1426,-512.53 1842,-512.53 1842,-452.53 1426,-452.53"/>
<text text-anchor="start" x="1437" y="-472.73" font-family="Helvetica,sans-Serif" font-size="32.00" fill="#29235c">end_date &#160;&#160;&#160;</text>
<text text-anchor="start" x="1669.23" y="-473.73" font-family="Helvetica,sans-Serif" font-style="italic" font-size="32.00" fill="#29235c">DATETIME</text>
<polygon fill="none" stroke="#29235c" stroke-width="2" points="1425,-451.53 1425,-873.53 1843,-873.53 1843,-451.53 1425,-451.53"/>
</g>
<!-- BoatService&#45;&gt;Booking -->
<!-- BoatService&#45;&gt;Booking -->
<g id="edge2" class="edge">
<title>BoatService:e&#45;&gt;Booking:w</title>
<path fill="none" stroke="#29235c" stroke-width="3" d="M1179.65,-404.53C1376.42,-404.53 1230.06,-769.36 1414.76,-782.19"/>
<polygon fill="#29235c" stroke="#29235c" stroke-width="3" points="1414.89,-785.69 1425,-782.53 1415.12,-778.7 1414.89,-785.69"/>
<text text-anchor="middle" x="1418.78" y="-753.73" font-family="Helvetica,sans-Serif" font-size="32.00" fill="#29235c">*</text>
<text text-anchor="middle" x="1170.76" y="-375.73" font-family="Helvetica,sans-Serif" font-size="32.00" fill="#29235c">1</text>
</g>
<!-- Service -->
<g id="Service" class="node">
<title>Service</title>
<ellipse fill="none" stroke="black" stroke-width="0" cx="1634" cy="-172.53" rx="210.02" ry="172.57"/>
<polygon fill="#1d71b8" stroke="transparent" points="1488,-232.53 1488,-292.53 1781,-292.53 1781,-232.53 1488,-232.53"/>
<polygon fill="none" stroke="#29235c" points="1488,-232.53 1488,-292.53 1781,-292.53 1781,-232.53 1488,-232.53"/>
<text text-anchor="start" x="1518.91" y="-253.73" font-family="Helvetica,sans-Serif" font-weight="bold" font-size="32.00" fill="#ffffff"> &#160;&#160;&#160;&#160;&#160;&#160;Service &#160;&#160;&#160;&#160;&#160;&#160;</text>
<polygon fill="#e7e2dd" stroke="transparent" points="1488,-172.53 1488,-232.53 1781,-232.53 1781,-172.53 1488,-172.53"/>
<polygon fill="none" stroke="#29235c" points="1488,-172.53 1488,-232.53 1781,-232.53 1781,-172.53 1488,-172.53"/>
<text text-anchor="start" x="1499" y="-193.73" font-family="Helvetica,sans-Serif" font-weight="bold" font-size="32.00" fill="#29235c">id</text>
<text text-anchor="start" x="1523.89" y="-193.73" font-family="Helvetica,sans-Serif" font-size="32.00" fill="#29235c"> &#160;&#160;&#160;</text>
<text text-anchor="start" x="1627.78" y="-193.73" font-family="Helvetica,sans-Serif" font-style="italic" font-size="32.00" fill="#29235c">INTEGER</text>
<polygon fill="#e7e2dd" stroke="transparent" points="1488,-112.53 1488,-172.53 1781,-172.53 1781,-112.53 1488,-112.53"/>
<polygon fill="none" stroke="#29235c" points="1488,-112.53 1488,-172.53 1781,-172.53 1781,-112.53 1488,-112.53"/>
<text text-anchor="start" x="1498.7" y="-132.73" font-family="Helvetica,sans-Serif" font-size="32.00" fill="#29235c">name &#160;&#160;&#160;</text>
<text text-anchor="start" x="1613.79" y="-133.73" font-family="Helvetica,sans-Serif" font-style="italic" font-size="32.00" fill="#29235c">VARCHAR</text>
<polygon fill="#e7e2dd" stroke="transparent" points="1488,-52.53 1488,-112.53 1781,-112.53 1781,-52.53 1488,-52.53"/>
<polygon fill="none" stroke="#29235c" points="1488,-52.53 1488,-112.53 1781,-112.53 1781,-52.53 1488,-52.53"/>
<text text-anchor="start" x="1498.87" y="-72.73" font-family="Helvetica,sans-Serif" font-size="32.00" fill="#29235c">description &#160;&#160;&#160;</text>
<text text-anchor="start" x="1688.61" y="-73.73" font-family="Helvetica,sans-Serif" font-style="italic" font-size="32.00" fill="#29235c">TEXT</text>
<polygon fill="none" stroke="#29235c" stroke-width="2" points="1486.5,-51.53 1486.5,-293.53 1781.5,-293.53 1781.5,-51.53 1486.5,-51.53"/>
</g>
<!-- BoatService&#45;&gt;Service -->
<!-- BoatService&#45;&gt;Service -->
<g id="edge4" class="edge">
<title>BoatService:e&#45;&gt;Service:w</title>
<path fill="none" stroke="#29235c" stroke-width="3" d="M1179.65,-344.53C1326.6,-344.53 1336.15,-209.11 1476.65,-202.76"/>
<polygon fill="#29235c" stroke="#29235c" stroke-width="3" points="1477.08,-206.26 1487,-202.53 1476.92,-199.26 1477.08,-206.26"/>
<text text-anchor="middle" x="1480.78" y="-173.73" font-family="Helvetica,sans-Serif" font-size="32.00" fill="#29235c">*</text>
<text text-anchor="middle" x="1170.76" y="-315.73" font-family="Helvetica,sans-Serif" font-size="32.00" fill="#29235c">1</text>
</g>
<!-- Booking&#45;&gt;Boat -->
<!-- Booking&#45;&gt;Boat -->
<g id="edge6" class="edge">
<title>Booking:e&#45;&gt;Boat:w</title>
<path fill="none" stroke="#29235c" stroke-width="3" d="M1843,-662.53C1958.95,-662.53 1959.41,-784.09 2068.6,-791.21"/>
<polygon fill="#29235c" stroke="#29235c" stroke-width="3" points="2068.68,-794.71 2078.78,-791.53 2068.9,-787.72 2068.68,-794.71"/>
<text text-anchor="middle" x="2072.56" y="-762.73" font-family="Helvetica,sans-Serif" font-size="32.00" fill="#29235c">*</text>
<text text-anchor="middle" x="1834.1" y="-633.73" font-family="Helvetica,sans-Serif" font-size="32.00" fill="#29235c">1</text>
</g>
<!-- Customer -->
<g id="Customer" class="node">
<title>Customer</title>
<ellipse fill="none" stroke="black" stroke-width="0" cx="2225.78" cy="-1155.53" rx="210.02" ry="172.57"/>
<polygon fill="#1d71b8" stroke="transparent" points="2079.78,-1215.53 2079.78,-1275.53 2372.78,-1275.53 2372.78,-1215.53 2079.78,-1215.53"/>
<polygon fill="none" stroke="#29235c" points="2079.78,-1215.53 2079.78,-1275.53 2372.78,-1275.53 2372.78,-1215.53 2079.78,-1215.53"/>
<text text-anchor="start" x="2094.7" y="-1236.73" font-family="Helvetica,sans-Serif" font-weight="bold" font-size="32.00" fill="#ffffff"> &#160;&#160;&#160;&#160;&#160;&#160;Customer &#160;&#160;&#160;&#160;&#160;&#160;</text>
<polygon fill="#e7e2dd" stroke="transparent" points="2079.78,-1155.53 2079.78,-1215.53 2372.78,-1215.53 2372.78,-1155.53 2079.78,-1155.53"/>
<polygon fill="none" stroke="#29235c" points="2079.78,-1155.53 2079.78,-1215.53 2372.78,-1215.53 2372.78,-1155.53 2079.78,-1155.53"/>
<text text-anchor="start" x="2090.78" y="-1176.73" font-family="Helvetica,sans-Serif" font-weight="bold" font-size="32.00" fill="#29235c">id</text>
<text text-anchor="start" x="2115.67" y="-1176.73" font-family="Helvetica,sans-Serif" font-size="32.00" fill="#29235c"> &#160;&#160;&#160;</text>
<text text-anchor="start" x="2219.57" y="-1176.73" font-family="Helvetica,sans-Serif" font-style="italic" font-size="32.00" fill="#29235c">INTEGER</text>
<polygon fill="#e7e2dd" stroke="transparent" points="2079.78,-1095.53 2079.78,-1155.53 2372.78,-1155.53 2372.78,-1095.53 2079.78,-1095.53"/>
<polygon fill="none" stroke="#29235c" points="2079.78,-1095.53 2079.78,-1155.53 2372.78,-1155.53 2372.78,-1095.53 2079.78,-1095.53"/>
<text text-anchor="start" x="2090.49" y="-1115.73" font-family="Helvetica,sans-Serif" font-size="32.00" fill="#29235c">name &#160;&#160;&#160;</text>
<text text-anchor="start" x="2205.57" y="-1116.73" font-family="Helvetica,sans-Serif" font-style="italic" font-size="32.00" fill="#29235c">VARCHAR</text>
<polygon fill="#e7e2dd" stroke="transparent" points="2079.78,-1035.53 2079.78,-1095.53 2372.78,-1095.53 2372.78,-1035.53 2079.78,-1035.53"/>
<polygon fill="none" stroke="#29235c" points="2079.78,-1035.53 2079.78,-1095.53 2372.78,-1095.53 2372.78,-1035.53 2079.78,-1035.53"/>
<text text-anchor="start" x="2090.78" y="-1055.73" font-family="Helvetica,sans-Serif" font-size="32.00" fill="#29235c">email &#160;&#160;&#160;</text>
<text text-anchor="start" x="2205.36" y="-1056.73" font-family="Helvetica,sans-Serif" font-style="italic" font-size="32.00" fill="#29235c">VARCHAR</text>
<polygon fill="none" stroke="#29235c" stroke-width="2" points="2078.28,-1034.53 2078.28,-1276.53 2373.28,-1276.53 2373.28,-1034.53 2078.28,-1034.53"/>
</g>
<!-- Booking&#45;&gt;Customer -->
<!-- Booking&#45;&gt;Customer -->
<g id="edge8" class="edge">
<title>Booking:e&#45;&gt;Customer:w</title>
<path fill="none" stroke="#29235c" stroke-width="3" d="M1843,-722.53C2070.43,-722.53 1854.6,-1171.62 2068.61,-1185.22"/>
<polygon fill="#29235c" stroke="#29235c" stroke-width="3" points="2068.68,-1188.72 2078.78,-1185.53 2068.9,-1181.73 2068.68,-1188.72"/>
<text text-anchor="middle" x="2072.56" y="-1156.73" font-family="Helvetica,sans-Serif" font-size="32.00" fill="#29235c">*</text>
<text text-anchor="middle" x="1834.1" y="-693.73" font-family="Helvetica,sans-Serif" font-size="32.00" fill="#29235c">1</text>
</g>
<!-- StorageSlot -->
<g id="StorageSlot" class="node">
<title>StorageSlot</title>
<ellipse fill="none" stroke="black" stroke-width="0" cx="2225.78" cy="-326.53" rx="231.45" ry="172.57"/>
<polygon fill="#1d71b8" stroke="transparent" points="2064.78,-386.53 2064.78,-446.53 2387.78,-446.53 2387.78,-386.53 2064.78,-386.53"/>
<polygon fill="none" stroke="#29235c" points="2064.78,-386.53 2064.78,-446.53 2387.78,-446.53 2387.78,-386.53 2064.78,-386.53"/>
<text text-anchor="start" x="2080.45" y="-407.73" font-family="Helvetica,sans-Serif" font-weight="bold" font-size="32.00" fill="#ffffff"> &#160;&#160;&#160;&#160;&#160;&#160;StorageSlot &#160;&#160;&#160;&#160;&#160;&#160;</text>
<polygon fill="#e7e2dd" stroke="transparent" points="2064.78,-326.53 2064.78,-386.53 2387.78,-386.53 2387.78,-326.53 2064.78,-326.53"/>
<polygon fill="none" stroke="#29235c" points="2064.78,-326.53 2064.78,-386.53 2387.78,-386.53 2387.78,-326.53 2064.78,-326.53"/>
<text text-anchor="start" x="2075.78" y="-347.73" font-family="Helvetica,sans-Serif" font-weight="bold" font-size="32.00" fill="#29235c">id</text>
<text text-anchor="start" x="2100.67" y="-347.73" font-family="Helvetica,sans-Serif" font-size="32.00" fill="#29235c"> &#160;&#160;&#160;</text>
<text text-anchor="start" x="2234.57" y="-347.73" font-family="Helvetica,sans-Serif" font-style="italic" font-size="32.00" fill="#29235c">INTEGER</text>
<polygon fill="#e7e2dd" stroke="transparent" points="2064.78,-266.53 2064.78,-326.53 2387.78,-326.53 2387.78,-266.53 2064.78,-266.53"/>
<polygon fill="none" stroke="#29235c" points="2064.78,-266.53 2064.78,-326.53 2387.78,-326.53 2387.78,-266.53 2064.78,-266.53"/>
<text text-anchor="start" x="2075.37" y="-286.73" font-family="Helvetica,sans-Serif" font-size="32.00" fill="#29235c">location &#160;&#160;&#160;</text>
<text text-anchor="start" x="2220.57" y="-287.73" font-family="Helvetica,sans-Serif" font-style="italic" font-size="32.00" fill="#29235c">VARCHAR</text>
<polygon fill="#e7e2dd" stroke="transparent" points="2064.78,-206.53 2064.78,-266.53 2387.78,-266.53 2387.78,-206.53 2064.78,-206.53"/>
<polygon fill="none" stroke="#29235c" points="2064.78,-206.53 2064.78,-266.53 2387.78,-266.53 2387.78,-206.53 2064.78,-206.53"/>
<text text-anchor="start" x="2075.78" y="-226.73" font-family="Helvetica,sans-Serif" font-size="32.00" fill="#29235c">size &#160;&#160;&#160;</text>
<text text-anchor="start" x="2220.36" y="-227.73" font-family="Helvetica,sans-Serif" font-style="italic" font-size="32.00" fill="#29235c">VARCHAR</text>
<polygon fill="none" stroke="#29235c" stroke-width="2" points="2063.28,-205.53 2063.28,-447.53 2388.28,-447.53 2388.28,-205.53 2063.28,-205.53"/>
</g>
<!-- Booking&#45;&gt;StorageSlot -->
<!-- Booking&#45;&gt;StorageSlot -->
<g id="edge10" class="edge">
<title>Booking:e&#45;&gt;StorageSlot:w</title>
<path fill="none" stroke="#29235c" stroke-width="3" d="M1843,-602.53C1986.32,-602.53 1920.31,-368.4 2053.41,-356.97"/>
<polygon fill="#29235c" stroke="#29235c" stroke-width="3" points="2053.94,-360.45 2063.78,-356.53 2053.65,-353.45 2053.94,-360.45"/>
<text text-anchor="middle" x="2057.56" y="-327.73" font-family="Helvetica,sans-Serif" font-size="32.00" fill="#29235c">*</text>
<text text-anchor="middle" x="1834.1" y="-573.73" font-family="Helvetica,sans-Serif" font-size="32.00" fill="#29235c">1</text>
</g>
<!-- Employee -->
<g id="Employee" class="node">
<title>Employee</title>
<ellipse fill="none" stroke="black" stroke-width="0" cx="301.93" cy="-940.53" rx="210.02" ry="172.57"/>
<polygon fill="#1d71b8" stroke="transparent" points="155.93,-1000.53 155.93,-1060.53 448.93,-1060.53 448.93,-1000.53 155.93,-1000.53"/>
<polygon fill="none" stroke="#29235c" points="155.93,-1000.53 155.93,-1060.53 448.93,-1060.53 448.93,-1000.53 155.93,-1000.53"/>
<text text-anchor="start" x="169.06" y="-1021.73" font-family="Helvetica,sans-Serif" font-weight="bold" font-size="32.00" fill="#ffffff"> &#160;&#160;&#160;&#160;&#160;&#160;Employee &#160;&#160;&#160;&#160;&#160;&#160;</text>
<polygon fill="#e7e2dd" stroke="transparent" points="155.93,-940.53 155.93,-1000.53 448.93,-1000.53 448.93,-940.53 155.93,-940.53"/>
<polygon fill="none" stroke="#29235c" points="155.93,-940.53 155.93,-1000.53 448.93,-1000.53 448.93,-940.53 155.93,-940.53"/>
<text text-anchor="start" x="166.93" y="-961.73" font-family="Helvetica,sans-Serif" font-weight="bold" font-size="32.00" fill="#29235c">id</text>
<text text-anchor="start" x="191.82" y="-961.73" font-family="Helvetica,sans-Serif" font-size="32.00" fill="#29235c"> &#160;&#160;&#160;</text>
<text text-anchor="start" x="295.72" y="-961.73" font-family="Helvetica,sans-Serif" font-style="italic" font-size="32.00" fill="#29235c">INTEGER</text>
<polygon fill="#e7e2dd" stroke="transparent" points="155.93,-880.53 155.93,-940.53 448.93,-940.53 448.93,-880.53 155.93,-880.53"/>
<polygon fill="none" stroke="#29235c" points="155.93,-880.53 155.93,-940.53 448.93,-940.53 448.93,-880.53 155.93,-880.53"/>
<text text-anchor="start" x="166.64" y="-900.73" font-family="Helvetica,sans-Serif" font-size="32.00" fill="#29235c">name &#160;&#160;&#160;</text>
<text text-anchor="start" x="281.72" y="-901.73" font-family="Helvetica,sans-Serif" font-style="italic" font-size="32.00" fill="#29235c">VARCHAR</text>
<polygon fill="#e7e2dd" stroke="transparent" points="155.93,-820.53 155.93,-880.53 448.93,-880.53 448.93,-820.53 155.93,-820.53"/>
<polygon fill="none" stroke="#29235c" points="155.93,-820.53 155.93,-880.53 448.93,-880.53 448.93,-820.53 155.93,-820.53"/>
<text text-anchor="start" x="166.93" y="-840.73" font-family="Helvetica,sans-Serif" font-size="32.00" fill="#29235c">role &#160;&#160;&#160;</text>
<text text-anchor="start" x="281.51" y="-841.73" font-family="Helvetica,sans-Serif" font-style="italic" font-size="32.00" fill="#29235c">VARCHAR</text>
<polygon fill="none" stroke="#29235c" stroke-width="2" points="154.43,-819.53 154.43,-1061.53 449.43,-1061.53 449.43,-819.53 154.43,-819.53"/>
</g>
<!-- Invoice -->
<g id="Invoice" class="node">
<title>Invoice</title>
<ellipse fill="none" stroke="black" stroke-width="0" cx="956.65" cy="-1225.53" rx="284.01" ry="172.57"/>
<polygon fill="#1d71b8" stroke="transparent" points="757.65,-1285.53 757.65,-1345.53 1155.65,-1345.53 1155.65,-1285.53 757.65,-1285.53"/>
<polygon fill="none" stroke="#29235c" points="757.65,-1285.53 757.65,-1345.53 1155.65,-1345.53 1155.65,-1285.53 757.65,-1285.53"/>
<text text-anchor="start" x="843.72" y="-1306.73" font-family="Helvetica,sans-Serif" font-weight="bold" font-size="32.00" fill="#ffffff"> &#160;&#160;&#160;&#160;&#160;&#160;Invoice &#160;&#160;&#160;&#160;&#160;&#160;</text>
<polygon fill="#e7e2dd" stroke="transparent" points="757.65,-1225.53 757.65,-1285.53 1155.65,-1285.53 1155.65,-1225.53 757.65,-1225.53"/>
<polygon fill="none" stroke="#29235c" points="757.65,-1225.53 757.65,-1285.53 1155.65,-1285.53 1155.65,-1225.53 757.65,-1225.53"/>
<text text-anchor="start" x="768.65" y="-1246.73" font-family="Helvetica,sans-Serif" font-weight="bold" font-size="32.00" fill="#29235c">id</text>
<text text-anchor="start" x="793.54" y="-1246.73" font-family="Helvetica,sans-Serif" font-size="32.00" fill="#29235c"> &#160;&#160;&#160;</text>
<text text-anchor="start" x="1002.44" y="-1246.73" font-family="Helvetica,sans-Serif" font-style="italic" font-size="32.00" fill="#29235c">INTEGER</text>
<polygon fill="#e7e2dd" stroke="transparent" points="757.65,-1165.53 757.65,-1225.53 1155.65,-1225.53 1155.65,-1165.53 757.65,-1165.53"/>
<polygon fill="none" stroke="#29235c" points="757.65,-1165.53 757.65,-1225.53 1155.65,-1225.53 1155.65,-1165.53 757.65,-1165.53"/>
<text text-anchor="start" x="768.29" y="-1185.73" font-family="Helvetica,sans-Serif" font-size="32.00" fill="#29235c">transaction_id &#160;&#160;&#160;</text>
<text text-anchor="start" x="1002.54" y="-1186.73" font-family="Helvetica,sans-Serif" font-style="italic" font-size="32.00" fill="#29235c">INTEGER</text>
<polygon fill="#e7e2dd" stroke="transparent" points="757.65,-1105.53 757.65,-1165.53 1155.65,-1165.53 1155.65,-1105.53 757.65,-1105.53"/>
<polygon fill="none" stroke="#29235c" points="757.65,-1105.53 757.65,-1165.53 1155.65,-1165.53 1155.65,-1105.53 757.65,-1105.53"/>
<text text-anchor="start" x="768.65" y="-1125.73" font-family="Helvetica,sans-Serif" font-size="32.00" fill="#29235c">issue_date &#160;&#160;&#160;</text>
<text text-anchor="start" x="982.89" y="-1126.73" font-family="Helvetica,sans-Serif" font-style="italic" font-size="32.00" fill="#29235c">DATETIME</text>
<polygon fill="none" stroke="#29235c" stroke-width="2" points="756.65,-1104.53 756.65,-1346.53 1156.65,-1346.53 1156.65,-1104.53 756.65,-1104.53"/>
</g>
<!-- Transaction -->
<g id="Transaction" class="node">
<title>Transaction</title>
<ellipse fill="none" stroke="black" stroke-width="0" cx="1634" cy="-1195.53" rx="324.62" ry="214.92"/>
<polygon fill="#1d71b8" stroke="transparent" points="1407,-1285.53 1407,-1345.53 1862,-1345.53 1862,-1285.53 1407,-1285.53"/>
<polygon fill="none" stroke="#29235c" points="1407,-1285.53 1407,-1345.53 1862,-1345.53 1862,-1285.53 1407,-1285.53"/>
<text text-anchor="start" x="1488.68" y="-1306.73" font-family="Helvetica,sans-Serif" font-weight="bold" font-size="32.00" fill="#ffffff"> &#160;&#160;&#160;&#160;&#160;&#160;Transaction &#160;&#160;&#160;&#160;&#160;&#160;</text>
<polygon fill="#e7e2dd" stroke="transparent" points="1407,-1225.53 1407,-1285.53 1862,-1285.53 1862,-1225.53 1407,-1225.53"/>
<polygon fill="none" stroke="#29235c" points="1407,-1225.53 1407,-1285.53 1862,-1285.53 1862,-1225.53 1407,-1225.53"/>
<text text-anchor="start" x="1418" y="-1246.73" font-family="Helvetica,sans-Serif" font-weight="bold" font-size="32.00" fill="#29235c">id</text>
<text text-anchor="start" x="1442.89" y="-1246.73" font-family="Helvetica,sans-Serif" font-size="32.00" fill="#29235c"> &#160;&#160;&#160;</text>
<text text-anchor="start" x="1708.78" y="-1246.73" font-family="Helvetica,sans-Serif" font-style="italic" font-size="32.00" fill="#29235c">INTEGER</text>
<polygon fill="#e7e2dd" stroke="transparent" points="1407,-1165.53 1407,-1225.53 1862,-1225.53 1862,-1165.53 1407,-1165.53"/>
<polygon fill="none" stroke="#29235c" points="1407,-1165.53 1407,-1225.53 1862,-1225.53 1862,-1165.53 1407,-1165.53"/>
<text text-anchor="start" x="1418" y="-1185.73" font-family="Helvetica,sans-Serif" font-size="32.00" fill="#29235c">customer_id &#160;&#160;&#160;</text>
<text text-anchor="start" x="1708.78" y="-1186.73" font-family="Helvetica,sans-Serif" font-style="italic" font-size="32.00" fill="#29235c">INTEGER</text>
<polygon fill="#e7e2dd" stroke="transparent" points="1407,-1105.53 1407,-1165.53 1862,-1165.53 1862,-1105.53 1407,-1105.53"/>
<polygon fill="none" stroke="#29235c" points="1407,-1105.53 1407,-1165.53 1862,-1165.53 1862,-1105.53 1407,-1105.53"/>
<text text-anchor="start" x="1418" y="-1125.73" font-family="Helvetica,sans-Serif" font-size="32.00" fill="#29235c">amount &#160;&#160;&#160;</text>
<text text-anchor="start" x="1747.88" y="-1126.73" font-family="Helvetica,sans-Serif" font-style="italic" font-size="32.00" fill="#29235c">FLOAT</text>
<polygon fill="#e7e2dd" stroke="transparent" points="1407,-1045.53 1407,-1105.53 1862,-1105.53 1862,-1045.53 1407,-1045.53"/>
<polygon fill="none" stroke="#29235c" points="1407,-1045.53 1407,-1105.53 1862,-1105.53 1862,-1045.53 1407,-1045.53"/>
<text text-anchor="start" x="1417.95" y="-1065.73" font-family="Helvetica,sans-Serif" font-size="32.00" fill="#29235c">transaction_date &#160;&#160;&#160;</text>
<text text-anchor="start" x="1689.62" y="-1066.73" font-family="Helvetica,sans-Serif" font-style="italic" font-size="32.00" fill="#29235c">DATETIME</text>
<polygon fill="none" stroke="#29235c" stroke-width="2" points="1405.5,-1044.53 1405.5,-1346.53 1862.5,-1346.53 1862.5,-1044.53 1405.5,-1044.53"/>
</g>
<!-- Invoice&#45;&gt;Transaction -->
<!-- Invoice&#45;&gt;Transaction -->
<g id="edge12" class="edge">
<title>Invoice:e&#45;&gt;Transaction:w</title>
<path fill="none" stroke="#29235c" stroke-width="3" d="M1156.65,-1195.53C1267.19,-1195.53 1290.64,-1251.96 1395.9,-1255.37"/>
<polygon fill="#29235c" stroke="#29235c" stroke-width="3" points="1395.94,-1258.87 1406,-1255.53 1396.06,-1251.87 1395.94,-1258.87"/>
<text text-anchor="middle" x="1399.78" y="-1226.73" font-family="Helvetica,sans-Serif" font-size="32.00" fill="#29235c">*</text>
<text text-anchor="middle" x="1147.76" y="-1166.73" font-family="Helvetica,sans-Serif" font-size="32.00" fill="#29235c">1</text>
</g>
<!-- Transaction&#45;&gt;Customer -->
<!-- Transaction&#45;&gt;Customer -->
<g id="edge14" class="edge">
<title>Transaction:e&#45;&gt;Customer:w</title>
<path fill="none" stroke="#29235c" stroke-width="3" d="M1863,-1195.53C1955.54,-1195.53 1980.96,-1186.24 2068.65,-1185.57"/>
<polygon fill="#29235c" stroke="#29235c" stroke-width="3" points="2068.8,-1189.07 2078.78,-1185.53 2068.77,-1182.07 2068.8,-1189.07"/>
<text text-anchor="middle" x="2072.56" y="-1195.13" font-family="Helvetica,sans-Serif" font-size="32.00" fill="#29235c">*</text>
<text text-anchor="middle" x="1854.1" y="-1166.73" font-family="Helvetica,sans-Serif" font-size="32.00" fill="#29235c">1</text>
</g>
<!-- Part -->
<g id="Part" class="node">
<title>Part</title>
<ellipse fill="none" stroke="black" stroke-width="0" cx="956.65" cy="-1588.53" rx="210.02" ry="172.57"/>
<polygon fill="#1d71b8" stroke="transparent" points="810.65,-1648.53 810.65,-1708.53 1103.65,-1708.53 1103.65,-1648.53 810.65,-1648.53"/>
<polygon fill="none" stroke="#29235c" points="810.65,-1648.53 810.65,-1708.53 1103.65,-1708.53 1103.65,-1648.53 810.65,-1648.53"/>
<text text-anchor="start" x="865.57" y="-1669.73" font-family="Helvetica,sans-Serif" font-weight="bold" font-size="32.00" fill="#ffffff"> &#160;&#160;&#160;&#160;&#160;&#160;Part &#160;&#160;&#160;&#160;&#160;&#160;</text>
<polygon fill="#e7e2dd" stroke="transparent" points="810.65,-1588.53 810.65,-1648.53 1103.65,-1648.53 1103.65,-1588.53 810.65,-1588.53"/>
<polygon fill="none" stroke="#29235c" points="810.65,-1588.53 810.65,-1648.53 1103.65,-1648.53 1103.65,-1588.53 810.65,-1588.53"/>
<text text-anchor="start" x="821.65" y="-1609.73" font-family="Helvetica,sans-Serif" font-weight="bold" font-size="32.00" fill="#29235c">id</text>
<text text-anchor="start" x="846.54" y="-1609.73" font-family="Helvetica,sans-Serif" font-size="32.00" fill="#29235c"> &#160;&#160;&#160;</text>
<text text-anchor="start" x="950.44" y="-1609.73" font-family="Helvetica,sans-Serif" font-style="italic" font-size="32.00" fill="#29235c">INTEGER</text>
<polygon fill="#e7e2dd" stroke="transparent" points="810.65,-1528.53 810.65,-1588.53 1103.65,-1588.53 1103.65,-1528.53 810.65,-1528.53"/>
<polygon fill="none" stroke="#29235c" points="810.65,-1528.53 810.65,-1588.53 1103.65,-1588.53 1103.65,-1528.53 810.65,-1528.53"/>
<text text-anchor="start" x="821.36" y="-1548.73" font-family="Helvetica,sans-Serif" font-size="32.00" fill="#29235c">name &#160;&#160;&#160;</text>
<text text-anchor="start" x="936.44" y="-1549.73" font-family="Helvetica,sans-Serif" font-style="italic" font-size="32.00" fill="#29235c">VARCHAR</text>
<polygon fill="#e7e2dd" stroke="transparent" points="810.65,-1468.53 810.65,-1528.53 1103.65,-1528.53 1103.65,-1468.53 810.65,-1468.53"/>
<polygon fill="none" stroke="#29235c" points="810.65,-1468.53 810.65,-1528.53 1103.65,-1528.53 1103.65,-1468.53 810.65,-1468.53"/>
<text text-anchor="start" x="821.65" y="-1488.73" font-family="Helvetica,sans-Serif" font-size="32.00" fill="#29235c">price &#160;&#160;&#160;</text>
<text text-anchor="start" x="989.53" y="-1489.73" font-family="Helvetica,sans-Serif" font-style="italic" font-size="32.00" fill="#29235c">FLOAT</text>
<polygon fill="none" stroke="#29235c" stroke-width="2" points="809.15,-1467.53 809.15,-1709.53 1104.15,-1709.53 1104.15,-1467.53 809.15,-1467.53"/>
</g>
<!-- Repair -->
<g id="Repair" class="node">
<title>Repair</title>
<ellipse fill="none" stroke="black" stroke-width="0" cx="301.93" cy="-434.53" rx="301.87" ry="172.57"/>
<polygon fill="#1d71b8" stroke="transparent" points="90.93,-494.53 90.93,-554.53 513.93,-554.53 513.93,-494.53 90.93,-494.53"/>
<polygon fill="none" stroke="#29235c" points="90.93,-494.53 90.93,-554.53 513.93,-554.53 513.93,-494.53 90.93,-494.53"/>
<text text-anchor="start" x="193.07" y="-515.73" font-family="Helvetica,sans-Serif" font-weight="bold" font-size="32.00" fill="#ffffff"> &#160;&#160;&#160;&#160;&#160;&#160;Repair &#160;&#160;&#160;&#160;&#160;&#160;</text>
<polygon fill="#e7e2dd" stroke="transparent" points="90.93,-434.53 90.93,-494.53 513.93,-494.53 513.93,-434.53 90.93,-434.53"/>
<polygon fill="none" stroke="#29235c" points="90.93,-434.53 90.93,-494.53 513.93,-494.53 513.93,-434.53 90.93,-434.53"/>
<text text-anchor="start" x="101.93" y="-455.73" font-family="Helvetica,sans-Serif" font-weight="bold" font-size="32.00" fill="#29235c">id</text>
<text text-anchor="start" x="126.82" y="-455.73" font-family="Helvetica,sans-Serif" font-size="32.00" fill="#29235c"> &#160;&#160;&#160;</text>
<text text-anchor="start" x="360.72" y="-455.73" font-family="Helvetica,sans-Serif" font-style="italic" font-size="32.00" fill="#29235c">INTEGER</text>
<polygon fill="#e7e2dd" stroke="transparent" points="90.93,-374.53 90.93,-434.53 513.93,-434.53 513.93,-374.53 90.93,-374.53"/>
<polygon fill="none" stroke="#29235c" points="90.93,-374.53 90.93,-434.53 513.93,-434.53 513.93,-374.53 90.93,-374.53"/>
<text text-anchor="start" x="101.62" y="-394.73" font-family="Helvetica,sans-Serif" font-size="32.00" fill="#29235c">boat_service_id &#160;&#160;&#160;</text>
<text text-anchor="start" x="360.83" y="-395.73" font-family="Helvetica,sans-Serif" font-style="italic" font-size="32.00" fill="#29235c">INTEGER</text>
<polygon fill="#e7e2dd" stroke="transparent" points="90.93,-314.53 90.93,-374.53 513.93,-374.53 513.93,-314.53 90.93,-314.53"/>
<polygon fill="none" stroke="#29235c" points="90.93,-314.53 90.93,-374.53 513.93,-374.53 513.93,-314.53 90.93,-314.53"/>
<text text-anchor="start" x="101.93" y="-334.73" font-family="Helvetica,sans-Serif" font-size="32.00" fill="#29235c">description &#160;&#160;&#160;</text>
<text text-anchor="start" x="421.16" y="-335.73" font-family="Helvetica,sans-Serif" font-style="italic" font-size="32.00" fill="#29235c">TEXT</text>
<polygon fill="none" stroke="#29235c" stroke-width="2" points="89.43,-313.53 89.43,-555.53 514.43,-555.53 514.43,-313.53 89.43,-313.53"/>
</g>
<!-- Repair&#45;&gt;BoatService -->
<!-- Repair&#45;&gt;BoatService -->
<g id="edge16" class="edge">
<title>Repair:e&#45;&gt;BoatService:w</title>
<path fill="none" stroke="#29235c" stroke-width="3" d="M514.93,-404.53C612.29,-404.53 631.59,-460.5 723.6,-464.33"/>
<polygon fill="#29235c" stroke="#29235c" stroke-width="3" points="723.58,-467.83 733.65,-464.53 723.73,-460.83 723.58,-467.83"/>
<text text-anchor="middle" x="727.43" y="-435.73" font-family="Helvetica,sans-Serif" font-size="32.00" fill="#29235c">*</text>
<text text-anchor="middle" x="506.04" y="-375.73" font-family="Helvetica,sans-Serif" font-size="32.00" fill="#29235c">1</text>
</g>
<!-- Supply -->
<g id="Supply" class="node">
<title>Supply</title>
<ellipse fill="none" stroke="black" stroke-width="0" cx="301.93" cy="-1588.53" rx="301.87" ry="172.57"/>
<polygon fill="#1d71b8" stroke="transparent" points="90.93,-1648.53 90.93,-1708.53 513.93,-1708.53 513.93,-1648.53 90.93,-1648.53"/>
<polygon fill="none" stroke="#29235c" points="90.93,-1648.53 90.93,-1708.53 513.93,-1708.53 513.93,-1648.53 90.93,-1648.53"/>
<text text-anchor="start" x="191.28" y="-1669.73" font-family="Helvetica,sans-Serif" font-weight="bold" font-size="32.00" fill="#ffffff"> &#160;&#160;&#160;&#160;&#160;&#160;Supply &#160;&#160;&#160;&#160;&#160;&#160;</text>
<polygon fill="#e7e2dd" stroke="transparent" points="90.93,-1588.53 90.93,-1648.53 513.93,-1648.53 513.93,-1588.53 90.93,-1588.53"/>
<polygon fill="none" stroke="#29235c" points="90.93,-1588.53 90.93,-1648.53 513.93,-1648.53 513.93,-1588.53 90.93,-1588.53"/>
<text text-anchor="start" x="101.93" y="-1609.73" font-family="Helvetica,sans-Serif" font-weight="bold" font-size="32.00" fill="#29235c">id</text>
<text text-anchor="start" x="126.82" y="-1609.73" font-family="Helvetica,sans-Serif" font-size="32.00" fill="#29235c"> &#160;&#160;&#160;</text>
<text text-anchor="start" x="360.72" y="-1609.73" font-family="Helvetica,sans-Serif" font-style="italic" font-size="32.00" fill="#29235c">INTEGER</text>
<polygon fill="#e7e2dd" stroke="transparent" points="90.93,-1528.53 90.93,-1588.53 513.93,-1588.53 513.93,-1528.53 90.93,-1528.53"/>
<polygon fill="none" stroke="#29235c" points="90.93,-1528.53 90.93,-1588.53 513.93,-1588.53 513.93,-1528.53 90.93,-1528.53"/>
<text text-anchor="start" x="101.93" y="-1548.73" font-family="Helvetica,sans-Serif" font-size="32.00" fill="#29235c">part_id &#160;&#160;&#160;</text>
<text text-anchor="start" x="360.72" y="-1549.73" font-family="Helvetica,sans-Serif" font-style="italic" font-size="32.00" fill="#29235c">INTEGER</text>
<polygon fill="#e7e2dd" stroke="transparent" points="90.93,-1468.53 90.93,-1528.53 513.93,-1528.53 513.93,-1468.53 90.93,-1468.53"/>
<polygon fill="none" stroke="#29235c" points="90.93,-1468.53 90.93,-1528.53 513.93,-1528.53 513.93,-1468.53 90.93,-1468.53"/>
<text text-anchor="start" x="101.74" y="-1488.73" font-family="Helvetica,sans-Serif" font-size="32.00" fill="#29235c">supplier_name &#160;&#160;&#160;</text>
<text text-anchor="start" x="346.72" y="-1489.73" font-family="Helvetica,sans-Serif" font-style="italic" font-size="32.00" fill="#29235c">VARCHAR</text>
<polygon fill="none" stroke="#29235c" stroke-width="2" points="89.43,-1467.53 89.43,-1709.53 514.43,-1709.53 514.43,-1467.53 89.43,-1467.53"/>
</g>
<!-- Supply&#45;&gt;Part -->
<!-- Supply&#45;&gt;Part -->
<g id="edge18" class="edge">
<title>Supply:e&#45;&gt;Part:w</title>
<path fill="none" stroke="#29235c" stroke-width="3" d="M514.93,-1558.53C645.08,-1558.53 674.46,-1615.41 799.3,-1618.41"/>
<polygon fill="#29235c" stroke="#29235c" stroke-width="3" points="799.61,-1621.92 809.65,-1618.53 799.7,-1614.92 799.61,-1621.92"/>
<text text-anchor="middle" x="803.43" y="-1589.73" font-family="Helvetica,sans-Serif" font-size="32.00" fill="#29235c">*</text>
<text text-anchor="middle" x="506.04" y="-1529.73" font-family="Helvetica,sans-Serif" font-size="32.00" fill="#29235c">1</text>
</g>
</g>
</svg>
